<svg xmlns="http://www.w3.org/2000/svg" width="176" height="38" viewBox="0 0 176.392 38"><path d="M41.767.052H9.74L.807 11.894h31.81L41.767.052zm-.807 26.107H8.933L0 38h31.809l9.151-11.841z" fill="#1e83f0"/><path d="M9.786 0l17.992 11.894h-3.857L9.786 0zm21.995 37.948l-14.009-11.79h-3.941l17.95 11.79z" fill="#1b66aa"/><path d="M9.74.052L.861 11.821a.097.097 0 0 0 .015.132L31.809 38l9.151-11.841L9.74.052z" fill="#459ae5"/><path d="M59.23 30.97c-1.362 0-2.668-.227-3.917-.681a9.045 9.045 0 0 1-3.27-2.044l.851-1.158c.954.863 1.941 1.499 2.963 1.907 1.022.409 2.146.613 3.372.613 1.544 0 2.787-.324 3.729-.971.942-.647 1.413-1.55 1.413-2.708 0-.545-.119-1.005-.358-1.379-.238-.375-.596-.692-1.073-.954-.477-.261-1.068-.494-1.771-.698a60.258 60.258 0 0 0-2.452-.647 36.3 36.3 0 0 1-2.605-.681c-.738-.227-1.345-.499-1.822-.817a3.159 3.159 0 0 1-1.073-1.158c-.238-.454-.358-1.033-.358-1.737 0-.886.17-1.657.511-2.316a4.583 4.583 0 0 1 1.413-1.635 6.488 6.488 0 0 1 2.078-.971 9.42 9.42 0 0 1 2.503-.323c1.385 0 2.611.233 3.678.698 1.067.466 1.896 1.062 2.486 1.788l-.954.92c-.591-.681-1.357-1.192-2.299-1.533a8.788 8.788 0 0 0-3.014-.511c-.659 0-1.277.068-1.856.204a4.466 4.466 0 0 0-1.516.647 3.188 3.188 0 0 0-1.022 1.141c-.25.466-.375 1.016-.375 1.652 0 .523.085.942.255 1.26.17.318.443.591.817.818.375.227.857.426 1.447.596.59.17 1.294.358 2.112.562 1.112.273 2.1.534 2.963.783.863.25 1.584.557 2.163.92.579.364 1.022.795 1.328 1.294.306.5.46 1.136.46 1.907 0 1.59-.619 2.856-1.856 3.798-1.233.943-2.885 1.414-4.951 1.414zm19.005-1.192c-.091.046-.244.131-.46.256a4.797 4.797 0 0 1-.817.358 10.09 10.09 0 0 1-1.107.307c-.409.09-.851.136-1.328.136s-.925-.068-1.345-.204a3.192 3.192 0 0 1-1.107-.613 2.911 2.911 0 0 1-.749-.988c-.182-.386-.272-.84-.272-1.362V14.316h-2.486V12.92h2.486V6.857h1.703v6.063h4.121v1.396h-4.121v12.942c0 .659.227 1.153.681 1.482a2.55 2.55 0 0 0 1.533.494c.704 0 1.311-.119 1.822-.358.511-.238.823-.392.937-.46l.509 1.362zm8.821 1.192c-3.769 0-5.654-2.611-5.654-7.833V12.919h1.703v9.979c0 4.36 1.487 6.539 4.462 6.539.749 0 1.476-.13 2.18-.392a7.633 7.633 0 0 0 3.593-2.776 8.587 8.587 0 0 0 1.107-2.18v-11.17h1.703v15.327c0 .568.238.851.715.851v1.533a1.641 1.641 0 0 1-.306.034h-.204c-.454 0-.857-.142-1.209-.426-.352-.284-.528-.664-.528-1.141V26.44c-.772 1.43-1.834 2.543-3.185 3.338a8.484 8.484 0 0 1-4.377 1.192zm22.138 0c-1.226 0-2.362-.255-3.406-.766a8.74 8.74 0 0 1-2.708-2.044 9.35 9.35 0 0 1-1.771-2.929 9.525 9.525 0 0 1-.63-3.423c0-1.226.204-2.395.613-3.508a9.37 9.37 0 0 1 1.703-2.929 8.367 8.367 0 0 1 2.572-2.01c.988-.499 2.072-.749 3.253-.749.772 0 1.499.114 2.18.341a8.625 8.625 0 0 1 3.508 2.214c.477.5.886 1.033 1.226 1.601V5.767h1.703v22.479c0 .568.238.851.715.851v1.533c-.136.022-.25.039-.341.051a2.274 2.274 0 0 1-.273.017c-.454 0-.84-.176-1.158-.528-.318-.352-.477-.721-.477-1.107v-1.975a8.185 8.185 0 0 1-2.912 2.827c-1.214.704-2.48 1.055-3.797 1.055zm.307-1.532c.613 0 1.271-.125 1.975-.375a7.527 7.527 0 0 0 1.958-1.039 7.588 7.588 0 0 0 1.55-1.516c.431-.567.681-1.18.749-1.839v-5.824a7.012 7.012 0 0 0-1.073-1.822 7.964 7.964 0 0 0-3.491-2.504 5.721 5.721 0 0 0-1.975-.375c-1.022 0-1.953.221-2.793.664a6.96 6.96 0 0 0-2.146 1.737 7.808 7.808 0 0 0-1.362 2.452 8.646 8.646 0 0 0-.477 2.844 7.803 7.803 0 0 0 2.061 5.313 7.345 7.345 0 0 0 2.248 1.669 6.31 6.31 0 0 0 2.776.615zM123.192 8.9V5.767h1.703V8.9h-1.703zm0 21.73V12.919h1.703V30.63h-1.703zm11.75.34a6.081 6.081 0 0 1-4.138-1.584 5.12 5.12 0 0 1-1.243-1.737 5.304 5.304 0 0 1-.443-2.163c0-.772.182-1.476.545-2.112a5.226 5.226 0 0 1 1.516-1.652c.647-.465 1.425-.829 2.333-1.09.908-.261 1.907-.392 2.997-.392.954 0 1.913.085 2.878.256.965.17 1.833.403 2.605.698v-1.737c0-1.68-.477-3.014-1.43-4.002-.954-.988-2.248-1.482-3.883-1.482-.863 0-1.777.182-2.742.545-.965.364-1.947.886-2.946 1.567l-.647-1.158c2.27-1.544 4.428-2.316 6.471-2.316 2.134 0 3.815.619 5.041 1.856 1.226 1.238 1.839 2.946 1.839 5.126v8.651c0 .568.25.851.749.851v1.533a3.807 3.807 0 0 1-.681.068c-.454 0-.818-.153-1.09-.46a1.926 1.926 0 0 1-.477-1.107v-1.465c-.817 1.068-1.862 1.885-3.133 2.452-1.272.57-2.645.854-4.121.854zm.341-1.362c1.317 0 2.526-.25 3.627-.749s1.947-1.158 2.537-1.975c.363-.477.545-.931.545-1.362v-3.133a13.708 13.708 0 0 0-2.554-.715 15.59 15.59 0 0 0-2.759-.238c-.885 0-1.692.097-2.418.29-.727.193-1.351.46-1.873.8a3.71 3.71 0 0 0-1.209 1.243 3.16 3.16 0 0 0-.426 1.618c0 .591.113 1.147.341 1.669.227.523.545.971.954 1.345.409.375.891.67 1.448.886a4.947 4.947 0 0 0 1.787.321zm22.308-15.156c-1.59.046-2.98.517-4.172 1.413-1.192.897-2.027 2.129-2.503 3.696V30.63h-1.703V12.919h1.635v4.36c.613-1.248 1.425-2.265 2.435-3.048 1.01-.783 2.095-1.231 3.253-1.345.227-.022.431-.034.613-.034h.443v1.6zm10.218 16.518c-1.249 0-2.407-.244-3.474-.732a8.573 8.573 0 0 1-2.776-2.01 9.491 9.491 0 0 1-1.839-2.946 9.573 9.573 0 0 1-.664-3.576c0-1.248.221-2.423.664-3.525a9.291 9.291 0 0 1 1.822-2.895 8.45 8.45 0 0 1 2.742-1.958c1.056-.477 2.197-.715 3.423-.715 1.248 0 2.406.244 3.474.732a8.661 8.661 0 0 1 2.759 1.975 9.035 9.035 0 0 1 1.805 2.895 9.496 9.496 0 0 1 .647 3.491v.426c0 .17-.012.278-.034.324h-15.531a7.882 7.882 0 0 0 .715 2.844c.409.874.925 1.63 1.55 2.265a6.956 6.956 0 0 0 2.163 1.499 6.369 6.369 0 0 0 2.622.545c.613 0 1.214-.085 1.805-.256a7.375 7.375 0 0 0 1.652-.698 5.943 5.943 0 0 0 1.362-1.073c.397-.42.709-.88.937-1.379l1.499.409a5.643 5.643 0 0 1-1.107 1.754 7.455 7.455 0 0 1-1.703 1.379 8.886 8.886 0 0 1-4.513 1.225zm6.948-9.877c-.068-1.044-.301-1.998-.698-2.861a7.627 7.627 0 0 0-1.533-2.231 6.902 6.902 0 0 0-2.163-1.465 6.56 6.56 0 0 0-2.623-.528c-.931 0-1.805.176-2.622.528a6.857 6.857 0 0 0-2.163 1.465 7.093 7.093 0 0 0-1.499 2.248 8.607 8.607 0 0 0-.664 2.844h13.965z" fill="#fff"/></svg>